<svg width="24" height="24" viewBox="0 0 24 24" fill="none" xmlns="http://www.w3.org/2000/svg">
<path d="M22.9781 1.02193C22.8515 0.896002 22.6917 0.808812 22.5173 0.770615C22.3429 0.732417 22.1613 0.744801 21.9937 0.806309L1.36869 8.30631C1.19082 8.37378 1.03768 8.49376 0.929613 8.65033C0.821548 8.80689 0.763672 8.99263 0.763672 9.18287C0.763672 9.37311 0.821548 9.55885 0.929613 9.71541C1.03768 9.87198 1.19082 9.99196 1.36869 10.0594L9.42182 13.2751L15.3656 7.31256L16.6874 8.63443L10.7156 14.6063L13.9406 22.6594C14.01 22.8339 14.1303 22.9834 14.2857 23.0887C14.4412 23.194 14.6247 23.2502 14.8124 23.2501C15.0019 23.2462 15.1857 23.185 15.3397 23.0745C15.4937 22.964 15.6106 22.8095 15.6749 22.6313L23.1749 2.00631C23.2388 1.84044 23.2542 1.65984 23.2194 1.48555C23.1845 1.31126 23.1008 1.15047 22.9781 1.02193Z" fill="white"/>
</svg>
